<svg xmlns="http://www.w3.org/2000/svg" viewBox="0 0 900 420" role="img" aria-labelledby="t d"><title id="t">Do pedido ao trabalho pronto</title><desc id="d">Um pedido entra, o funcionário digital usa a memória da empresa e entrega o trabalho pronto.</desc><defs><linearGradient id="bg" x1="0" y1="0" x2="1" y2="1"><stop stop-color="#0c120e"/><stop offset="1" stop-color="#050806"/></linearGradient></defs><rect width="900" height="420" rx="34" fill="url(#bg)"/><g fill="#101813" stroke="#2b3d31"><rect x="56" y="108" width="216" height="204" rx="22"/><rect x="342" y="72" width="216" height="276" rx="22"/><rect x="628" y="108" width="216" height="204" rx="22"/></g><g font-family="Arial"><text x="86" y="146" fill="#42da88" font-size="13" font-weight="700" letter-spacing="2">ENTRADA</text><text x="86" y="184" fill="#fff" font-size="24" font-weight="700">Pedido real</text><rect x="86" y="214" width="150" height="10" rx="5" fill="#2a362e"/><rect x="86" y="238" width="116" height="10" rx="5" fill="#1d271f"/><rect x="86" y="272" width="92" height="24" rx="12" fill="#183724"/><text x="103" y="289" fill="#7de8ad" font-size="12">proposta</text><text x="372" y="110" fill="#42da88" font-size="13" font-weight="700" letter-spacing="2">FUNCIONÁRIO DIGITAL</text><circle cx="450" cy="194" r="56" fill="#0b120d" stroke="#42da88"/><circle cx="450" cy="174" r="7" fill="#42da88"/><path d="M428 190c0 22 10 34 22 34s22-12 22-34" fill="none" stroke="#fff" stroke-width="9" stroke-linecap="round"/><text x="450" y="282" fill="#fff" font-size="18" text-anchor="middle">usa o Ninho</text><text x="450" y="307" fill="#9da69f" font-size="13" text-anchor="middle">segue o padrão da empresa</text><text x="658" y="146" fill="#42da88" font-size="13" font-weight="700" letter-spacing="2">SAÍDA</text><text x="658" y="184" fill="#fff" font-size="24" font-weight="700">Trabalho pronto</text><path d="M660 222h150v64H660z" fill="#0b120d" stroke="#42da88"/><path d="m680 253 17 17 36-38" fill="none" stroke="#42da88" stroke-width="4"/><text x="750" y="258" fill="#dce4de" font-size="13" text-anchor="middle">revisado</text></g><path d="M276 210h55M568 210h55" stroke="#42da88" stroke-width="3" stroke-linecap="round"/><path d="m321 199 12 11-12 11M613 199l12 11-12 11" fill="none" stroke="#42da88" stroke-width="3" stroke-linecap="round" stroke-linejoin="round"/></svg>