<svg xmlns="http://www.w3.org/2000/svg" viewBox="0 0 720 560" role="img" aria-labelledby="t d"><title id="t">O Ninho</title><desc id="d">A memória da empresa conectando clientes, preços, propostas, contratos, documentos, voz, processos e histórico.</desc><defs><radialGradient id="g"><stop stop-color="#183522"/><stop offset="1" stop-color="#060906"/></radialGradient><filter id="glow"><feGaussianBlur stdDeviation="14" result="b"/><feMerge><feMergeNode in="b"/><feMergeNode in="SourceGraphic"/></feMerge></filter></defs><rect width="720" height="560" rx="34" fill="#070a08"/><circle cx="360" cy="280" r="220" fill="url(#g)" opacity=".75"/><g stroke="#2a3b30" stroke-width="2"><path d="M360 280 140 116M360 280 350 76M360 280 580 116M360 280 620 280M360 280 580 444M360 280 350 490M360 280 140 444M360 280 98 280"/></g><g fill="#0f1712" stroke="#304438"><rect x="74" y="78" width="132" height="70" rx="16"/><rect x="284" y="42" width="132" height="70" rx="16"/><rect x="514" y="78" width="132" height="70" rx="16"/><rect x="554" y="245" width="132" height="70" rx="16"/><rect x="514" y="412" width="132" height="70" rx="16"/><rect x="284" y="448" width="132" height="70" rx="16"/><rect x="74" y="412" width="132" height="70" rx="16"/><rect x="34" y="245" width="132" height="70" rx="16"/></g><g fill="#dfe5e0" font-family="Arial" font-size="15" text-anchor="middle"><text x="140" y="120">clientes</text><text x="350" y="84">preços</text><text x="580" y="120">propostas</text><text x="620" y="287">contratos</text><text x="580" y="454">documentos</text><text x="350" y="490">tom de voz</text><text x="140" y="454">processos</text><text x="100" y="287">histórico</text></g><g filter="url(#glow)"><circle cx="360" cy="280" r="92" fill="#0b120d" stroke="#42da88" stroke-width="2"/><circle cx="360" cy="246" r="11" fill="#42da88"/><path d="M324 270c0 35 16 55 36 55s36-20 36-55" fill="none" stroke="#fff" stroke-width="15" stroke-linecap="round"/><text x="360" y="365" fill="#42da88" font-family="Arial" font-size="15" text-anchor="middle">memória da empresa</text></g></svg>