<svg xmlns="http://www.w3.org/2000/svg" viewBox="0 0 720 520" role="img" aria-labelledby="t d"><title id="t">Trabalho manual espalhado</title><desc id="d">Painéis de atendimento, proposta e cobrança acumulados em uma operação.</desc><defs><linearGradient id="bg" x1="0" y1="0" x2="1" y2="1"><stop stop-color="#0d1510"/><stop offset="1" stop-color="#050806"/></linearGradient><filter id="s"><feDropShadow dx="0" dy="20" stdDeviation="24" flood-color="#000" flood-opacity=".45"/></filter></defs><rect width="720" height="520" rx="34" fill="url(#bg)"/><path d="M38 95h644M38 210h644M38 325h644M154 38v444M322 38v444M490 38v444" stroke="#1d2921"/><g filter="url(#s)"><rect x="58" y="68" width="276" height="146" rx="18" fill="#111913" stroke="#2b3a30"/><circle cx="88" cy="99" r="12" fill="#42da88" fill-opacity=".16"/><path d="M82 99h12M88 93v12" stroke="#42da88" stroke-width="2"/><text x="112" y="104" fill="#f5f7f5" font-family="Arial" font-size="18" font-weight="700">WhatsApp pendente</text><rect x="82" y="131" width="214" height="10" rx="5" fill="#26312a"/><rect x="82" y="155" width="164" height="10" rx="5" fill="#1d261f"/><rect x="82" y="178" width="102" height="20" rx="10" fill="#361d1d"/><text x="96" y="192" fill="#e89999" font-family="Arial" font-size="11">18 conversas</text></g><g filter="url(#s)"><rect x="382" y="122" width="280" height="170" rx="18" fill="#101712" stroke="#2b3a30"/><path d="M414 160h36v46h-36zM442 160l8 8" fill="none" stroke="#42da88" stroke-width="2"/><text x="470" y="168" fill="#f5f7f5" font-family="Arial" font-size="18" font-weight="700">Proposta em rascunho</text><rect x="414" y="220" width="208" height="10" rx="5" fill="#26312a"/><rect x="414" y="242" width="174" height="10" rx="5" fill="#1d261f"/><rect x="414" y="266" width="122" height="10" rx="5" fill="#1d261f"/></g><g filter="url(#s)"><rect x="116" y="300" width="336" height="156" rx="18" fill="#0f1611" stroke="#2b3a30"/><circle cx="154" cy="342" r="20" fill="#42da88" fill-opacity=".12" stroke="#42da88"/><text x="148" y="349" fill="#42da88" font-family="Arial" font-size="20" font-weight="700">$</text><text x="188" y="338" fill="#f5f7f5" font-family="Arial" font-size="18" font-weight="700">Cobrança atrasada</text><text x="188" y="364" fill="#9da69f" font-family="Arial" font-size="13">mensagens, conferência e retorno</text><rect x="148" y="399" width="250" height="12" rx="6" fill="#26312a"/><rect x="148" y="424" width="184" height="12" rx="6" fill="#1d261f"/></g><path d="M335 153c36-12 50 18 58 40M329 355c43-7 54-28 62-58" stroke="#42da88" stroke-width="2" stroke-dasharray="6 8" opacity=".55"/></svg>